<?xml version="1.0" encoding="utf-8"?>
<!-- Generator: Adobe Illustrator 27.5.0, SVG Export Plug-In . SVG Version: 6.00 Build 0)  -->
<svg version="1.1" xmlns="http://www.w3.org/2000/svg" xmlns:xlink="http://www.w3.org/1999/xlink" x="0px" y="0px"
	 viewBox="0 0 500 500" style="enable-background:new 0 0 500 500;" xml:space="preserve">
<g id="Background_Complete">
	<g>
		<rect y="382.398" style="fill:#EBEBEB;" width="500" height="0.25"/>
		<rect x="396.833" y="398.494" style="fill:#EBEBEB;" width="53.068" height="0.25"/>
		<rect x="272.556" y="395.361" style="fill:#EBEBEB;" width="58.665" height="0.25"/>
		<rect x="380.195" y="393.917" style="fill:#EBEBEB;" width="19.192" height="0.25"/>
		<rect x="100.473" y="390.888" style="fill:#EBEBEB;" width="43.193" height="0.25"/>
		<rect x="79.459" y="390.888" style="fill:#EBEBEB;" width="15.444" height="0.25"/>
		<rect x="131.471" y="395.111" style="fill:#EBEBEB;" width="54.195" height="0.25"/>
		<path style="fill:#EBEBEB;" d="M237.014,337.8H43.915c-3.147,0-5.708-2.561-5.708-5.708V60.66c0-3.147,2.561-5.708,5.708-5.708
			h193.099c3.146,0,5.707,2.561,5.707,5.708v271.432C242.721,335.239,240.16,337.8,237.014,337.8z M43.915,55.203
			c-3.01,0-5.458,2.448-5.458,5.458v271.432c0,3.01,2.448,5.458,5.458,5.458h193.099c3.009,0,5.457-2.448,5.457-5.458V60.66
			c0-3.009-2.448-5.458-5.457-5.458H43.915z"/>
		<path style="fill:#EBEBEB;" d="M453.31,337.8H260.212c-3.147,0-5.707-2.561-5.707-5.708V60.66c0-3.147,2.561-5.708,5.707-5.708
			H453.31c3.148,0,5.708,2.561,5.708,5.708v271.432C459.019,335.239,456.458,337.8,453.31,337.8z M260.212,55.203
			c-3.009,0-5.457,2.448-5.457,5.458v271.432c0,3.01,2.448,5.458,5.457,5.458H453.31c3.01,0,5.458-2.448,5.458-5.458V60.66
			c0-3.009-2.448-5.458-5.458-5.458H260.212z"/>
	</g>
	<g>
		<g>
			<g>
				
					<rect x="371.644" y="76.236" transform="matrix(-1 -1.224647e-16 1.224647e-16 -1 787.1193 280.4038)" style="fill:#F0F0F0;" width="43.831" height="127.932"/>
				
					<rect x="362.232" y="76.236" transform="matrix(-1 -1.224647e-16 1.224647e-16 -1 774.8796 280.4038)" style="fill:#F5F5F5;" width="50.416" height="127.932"/>
				
					<rect x="328.501" y="119.218" transform="matrix(6.123234e-17 -1 1 6.123234e-17 247.2379 527.6417)" style="fill:#FFFFFF;" width="117.877" height="41.969"/>
				
					<rect x="341.527" y="129.39" transform="matrix(6.123234e-17 -1 1 6.123234e-17 247.2379 527.6417)" style="fill:#F5F5F5;" width="91.825" height="21.624"/>
			</g>
			<g>
				
					<rect x="308.645" y="103.791" transform="matrix(-1 -1.224647e-16 1.224647e-16 -1 661.1217 335.5137)" style="fill:#F0F0F0;" width="43.831" height="127.932"/>
				
					<rect x="299.233" y="103.791" transform="matrix(-1 -1.224647e-16 1.224647e-16 -1 648.8819 335.5137)" style="fill:#F5F5F5;" width="50.416" height="127.932"/>
				
					<rect x="265.503" y="146.773" transform="matrix(6.123234e-17 -1 1 6.123234e-17 156.6842 492.1978)" style="fill:#FFFFFF;" width="117.877" height="41.969"/>
				<path style="fill:#F5F5F5;" d="M335.253,130.484v74.546c0,4.771-3.868,8.639-8.639,8.639h-4.345
					c-4.771,0-8.639-3.868-8.639-8.639v-74.546c0-4.771,3.868-8.639,8.639-8.639h4.345
					C331.385,121.844,335.253,125.712,335.253,130.484z"/>
			</g>
		</g>
		<g>
			
				<rect x="268.827" y="285.425" transform="matrix(-1 -1.224647e-16 1.224647e-16 -1 546.1615 667.8214)" style="fill:#E6E6E6;" width="8.507" height="96.972"/>
			
				<rect x="266.143" y="285.425" transform="matrix(-1 -1.224647e-16 1.224647e-16 -1 538.1938 667.8214)" style="fill:#F0F0F0;" width="5.908" height="96.972"/>
			<rect x="264.313" y="285.425" style="fill:#F0F0F0;" width="101.2" height="9.573"/>
			
				<rect x="369.321" y="294.997" transform="matrix(-1 -1.224647e-16 1.224647e-16 -1 747.1492 677.3941)" style="fill:#E6E6E6;" width="8.507" height="87.399"/>
			
				<rect x="366.637" y="294.997" transform="matrix(-1 -1.224647e-16 1.224647e-16 -1 739.1812 677.3941)" style="fill:#F0F0F0;" width="5.908" height="87.399"/>
			
				<rect x="423.155" y="294.997" transform="matrix(-1 -1.224647e-16 1.224647e-16 -1 854.8178 677.3941)" style="fill:#E6E6E6;" width="8.507" height="87.399"/>
			
				<rect x="420.471" y="294.997" transform="matrix(-1 -1.224647e-16 1.224647e-16 -1 846.8497 677.3941)" style="fill:#F0F0F0;" width="5.908" height="87.399"/>
			
				<rect x="322.662" y="294.997" transform="matrix(-1 -1.224647e-16 1.224647e-16 -1 653.8304 677.3941)" style="fill:#E6E6E6;" width="8.507" height="87.399"/>
			
				<rect x="319.977" y="294.997" transform="matrix(-1 -1.224647e-16 1.224647e-16 -1 645.8624 677.3941)" style="fill:#F0F0F0;" width="5.908" height="87.399"/>
			
				<rect x="365.513" y="285.425" transform="matrix(-1 -1.224647e-16 1.224647e-16 -1 797.1751 580.4219)" style="fill:#E6E6E6;" width="66.15" height="9.573"/>
		</g>
		<g>
			<polygon style="fill:#E6E6E6;" points="361.249,285.218 404.677,285.218 410.046,226.222 366.618,226.222 			"/>
			<polygon style="fill:#F0F0F0;" points="358.999,285.218 402.427,285.218 407.797,226.222 364.369,226.222 			"/>
			<polygon style="fill:#FFFFFF;" points="396.491,278.687 400.672,232.753 370.306,232.753 366.125,278.687 			"/>
		</g>
		<g>
			<g>
				<rect x="134.07" y="85.667" style="fill:#EBEBEB;" width="71.799" height="296.732"/>
				
					<rect x="27.604" y="205.005" transform="matrix(-1.836970e-16 1 -1 -1.836970e-16 404.0023 64.063)" style="fill:#FAFAFA;" width="284.731" height="58.056"/>
			</g>
			<g>
				<rect x="59.217" y="85.667" style="fill:#EBEBEB;" width="71.799" height="296.732"/>
				
					<rect x="131.016" y="86.833" transform="matrix(-1 -1.224647e-16 1.224647e-16 -1 265.0864 468.065)" style="fill:#E0E0E0;" width="3.054" height="294.398"/>
				
					<rect x="-47.249" y="205.005" transform="matrix(-1.836970e-16 1 -1 -1.836970e-16 329.1492 138.9161)" style="fill:#FAFAFA;" width="284.731" height="58.056"/>
			</g>
			<path style="fill:#E0E0E0;" d="M214.016,83.444H51.07c-0.605,0-1.101-0.495-1.101-1.101v-0.465c0-0.605,0.495-1.101,1.101-1.101
				h162.945c0.605,0,1.101,0.495,1.101,1.101v0.465C215.117,82.949,214.621,83.444,214.016,83.444z"/>
			
				<rect x="167.137" y="65.472" transform="matrix(-1.836970e-16 1 -1 -1.836970e-16 264.4698 -75.4695)" style="fill:#E0E0E0;" width="5.666" height="58.056"/>
			
				<rect x="165.192" y="67.416" transform="matrix(-1.836970e-16 1 -1 -1.836970e-16 266.4142 -73.525)" style="fill:#E0E0E0;" width="9.555" height="58.056"/>
			
				<rect x="84.672" y="73.083" transform="matrix(-1.836970e-16 1 -1 -1.836970e-16 197.2278 6.9948)" style="fill:#E0E0E0;" width="20.889" height="58.056"/>
			<g style="opacity:0.8;">
				<rect x="190.741" y="74.556" style="fill:#F5F5F5;" width="11.085" height="304.194"/>
				<rect x="193.667" y="74.556" style="fill:#F0F0F0;" width="5.233" height="304.194"/>
				<rect x="196.687" y="74.556" style="fill:#F5F5F5;" width="11.085" height="304.194"/>
				<rect x="199.613" y="74.556" style="fill:#F0F0F0;" width="5.233" height="304.194"/>
				<rect x="202.229" y="74.556" style="fill:#F5F5F5;" width="11.085" height="304.194"/>
			</g>
			<g style="opacity:0.8;">
				<rect x="51.953" y="74.556" style="fill:#F5F5F5;" width="23.284" height="304.194"/>
				<rect x="58.099" y="74.556" style="fill:#F0F0F0;" width="10.991" height="304.194"/>
				<rect x="64.443" y="74.556" style="fill:#F5F5F5;" width="23.284" height="304.194"/>
				<rect x="70.59" y="74.556" style="fill:#F0F0F0;" width="10.991" height="304.194"/>
				<rect x="76.086" y="74.556" style="fill:#F5F5F5;" width="23.284" height="304.194"/>
			</g>
		</g>
	</g>
</g>
<g id="Background_Simple" style="display:none;">
	<g style="display:inline;">
		<g>
			<path style="fill:#407BFF;" d="M434.856,202.779C450.83,103.987,321.581,63.676,255.995,82.346
				c-26.049,7.415-35.047,17.321-63.849,10.397c-20.927-5.031-35.665-26.739-58.118-29.194
				c-49.232-5.384-73.356,42.734-76.022,84.225c-2.767,43.053,11.58,69.723,57.422,87.128c19.817,7.525,37.959,0.315,55.14,5.239
				c35.304,10.116,38.633,32.519,62.787,53.882C322.003,372.429,420.351,292.505,434.856,202.779z"/>
		</g>
		<g style="opacity:0.9;">
			<path style="fill:#FFFFFF;" d="M434.856,202.779C450.83,103.987,321.581,63.676,255.995,82.346
				c-26.049,7.415-35.047,17.321-63.849,10.397c-20.927-5.031-35.665-26.739-58.118-29.194
				c-49.232-5.384-73.356,42.734-76.022,84.225c-2.767,43.053,11.58,69.723,57.422,87.128c19.817,7.525,37.959,0.315,55.14,5.239
				c35.304,10.116,38.633,32.519,62.787,53.882C322.003,372.429,420.351,292.505,434.856,202.779z"/>
		</g>
	</g>
</g>
<g id="Shadow_1_">
	<ellipse id="_x3C_Path_x3E__341_" style="fill:#F5F5F5;" cx="250" cy="416.238" rx="193.889" ry="11.323"/>
</g>
<g id="Table">
	<g>
		
			<rect x="79.56" y="170.638" transform="matrix(0.9969 -0.0787 0.0787 0.9969 -13.9139 6.8602)" style="fill:#407BFF;" width="0.999" height="18.561"/>
		
			<rect x="81.081" y="196.17" transform="matrix(0.9969 -0.0788 0.0788 0.9969 -15.4506 7.0527)" style="fill:#407BFF;" width="0.999" height="6.006"/>
		<polygon style="fill:#407BFF;" points="119.114,137.056 158.545,137.056 197.977,137.056 237.408,137.056 276.839,137.056 
			316.27,137.056 317.984,158.76 319.699,180.464 321.414,202.167 323.128,223.871 324.843,245.575 326.557,267.278 
			287.126,267.278 247.695,267.278 208.263,267.278 168.832,267.278 129.401,267.278 89.97,267.278 88.256,245.575 86.541,223.871 
			84.827,202.167 83.112,180.464 81.398,158.76 79.683,137.056 		"/>
		<polygon style="fill:#FFFFFF;" points="122.018,134.056 161.449,134.056 200.88,134.056 240.311,134.056 279.742,134.056 
			319.173,134.056 320.888,155.76 322.603,177.464 324.317,199.167 326.032,220.871 327.746,242.575 329.461,264.278 
			290.03,264.278 250.598,264.278 211.167,264.278 171.736,264.278 132.305,264.278 92.873,264.278 91.159,242.575 89.444,220.871 
			87.73,199.167 86.016,177.464 84.301,155.76 82.587,134.056 		"/>
		<g>
			<polygon style="fill:#FFFFFF;" points="281.457,155.76 320.888,155.76 319.174,134.056 279.742,134.056 			"/>
			<polygon style="fill:#FFFFFF;" points="242.026,155.76 281.457,155.76 279.742,134.056 240.311,134.056 			"/>
			<polygon style="fill:#FFFFFF;" points="202.595,155.76 242.026,155.76 240.311,134.056 200.88,134.056 			"/>
			<polygon style="fill:#FFFFFF;" points="163.163,155.76 202.595,155.76 200.88,134.056 161.449,134.056 			"/>
			<polygon style="fill:#FFFFFF;" points="123.732,155.76 163.163,155.76 161.449,134.056 122.018,134.056 			"/>
			<polygon style="fill:#F5F5F5;" points="84.301,155.76 123.732,155.76 122.018,134.056 82.587,134.056 			"/>
			<polygon style="fill:#407BFF;" points="283.171,177.464 322.603,177.464 320.888,155.76 281.457,155.76 			"/>
			<polygon style="opacity:0.3;fill:#407BFF;" points="243.74,177.464 283.171,177.464 281.457,155.76 242.026,155.76 			"/>
			<polygon style="opacity:0.6;fill:#407BFF;" points="204.309,177.464 243.74,177.464 242.026,155.76 202.595,155.76 			"/>
			<polygon style="opacity:0.6;fill:#407BFF;" points="164.878,177.464 204.309,177.464 202.595,155.76 163.163,155.76 			"/>
			<polygon style="fill:#407BFF;" points="125.447,177.464 164.878,177.464 163.163,155.76 123.732,155.76 			"/>
			<polygon style="fill:#F5F5F5;" points="86.016,177.464 125.447,177.464 123.732,155.76 84.301,155.76 			"/>
			<path style="fill:#E0E0E0;" d="M324.588,199.417h-39.934l-0.018-0.231l-1.736-21.973h39.934l0.017,0.23L324.588,199.417z
				 M285.117,198.917h38.93l-1.676-21.204h-38.93L285.117,198.917z"/>
			<polygon style="opacity:0.1;fill:#407BFF;" points="245.455,199.167 284.886,199.167 283.171,177.464 243.74,177.464 			"/>
			<polygon style="opacity:0.6;fill:#407BFF;" points="206.023,199.167 245.455,199.167 243.74,177.464 204.309,177.464 			"/>
			<polygon style="opacity:0.6;fill:#407BFF;" points="166.592,199.167 206.023,199.167 204.309,177.464 164.878,177.464 			"/>
			<polygon style="opacity:0.6;fill:#407BFF;" points="127.161,199.167 166.592,199.167 164.878,177.464 125.447,177.464 			"/>
			<polygon style="fill:#F5F5F5;" points="87.73,199.167 127.161,199.167 125.447,177.464 86.016,177.464 			"/>
			<path style="fill:#E0E0E0;" d="M326.302,221.121h-39.933l-0.018-0.23l-1.736-21.974h39.934l0.018,0.23L326.302,221.121z
				 M286.832,220.621h38.929l-1.675-21.204h-38.93L286.832,220.621z"/>
			<polygon style="fill:#FFFFFF;" points="247.169,220.871 286.6,220.871 284.886,199.167 245.455,199.167 			"/>
			<polygon style="opacity:0.1;fill:#407BFF;" points="207.738,220.871 247.169,220.871 245.455,199.167 206.023,199.167 			"/>
			<polygon style="opacity:0.8;fill:#407BFF;" points="168.307,220.871 207.738,220.871 206.023,199.167 166.592,199.167 			"/>
			<polygon style="opacity:0.8;fill:#407BFF;" points="128.876,220.871 168.307,220.871 166.592,199.167 127.161,199.167 			"/>
			<polygon style="fill:#F5F5F5;" points="89.445,220.871 128.876,220.871 127.161,199.167 87.73,199.167 			"/>
			<path style="fill:#E0E0E0;" d="M328.017,242.824h-39.934l-0.018-0.23l-1.735-21.973h39.933l0.018,0.23L328.017,242.824z
				 M288.546,242.324h38.93l-1.676-21.203h-38.929L288.546,242.324z"/>
			<polygon style="fill:#FFFFFF;" points="248.884,242.575 288.315,242.575 286.6,220.871 247.169,220.871 			"/>
			<polygon style="fill:#FFFFFF;" points="209.452,242.575 248.884,242.575 247.169,220.871 207.738,220.871 			"/>
			<polygon style="opacity:0.1;fill:#407BFF;" points="170.021,242.575 209.452,242.575 207.738,220.871 168.307,220.871 			"/>
			<polygon style="fill:#407BFF;" points="130.59,242.575 170.021,242.575 168.307,220.871 128.876,220.871 			"/>
			<polygon style="fill:#F5F5F5;" points="91.159,242.575 130.59,242.575 128.876,220.871 89.445,220.871 			"/>
			<path style="fill:#E0E0E0;" d="M329.732,264.528h-39.934l-0.018-0.23l-1.736-21.974h39.934l0.018,0.23L329.732,264.528z
				 M290.261,264.028h38.93l-1.676-21.204h-38.93L290.261,264.028z"/>
			<polygon style="fill:#FFFFFF;" points="250.598,264.278 290.029,264.278 288.315,242.575 248.884,242.575 			"/>
			<polygon style="fill:#FFFFFF;" points="211.167,264.278 250.598,264.278 248.884,242.575 209.452,242.575 			"/>
			<polygon style="fill:#FFFFFF;" points="171.736,264.278 211.167,264.278 209.452,242.575 170.021,242.575 			"/>
			<polygon style="opacity:0.1;fill:#407BFF;" points="132.305,264.278 171.736,264.278 170.021,242.575 130.59,242.575 			"/>
			<polygon style="fill:#F5F5F5;" points="92.873,264.278 132.305,264.278 130.59,242.575 91.159,242.575 			"/>
		</g>
		<g>
			<path style="fill:#E0E0E0;" d="M321.158,156.01h-39.933l-0.018-0.23l-1.736-21.973h39.934l0.018,0.23L321.158,156.01z
				 M281.689,155.51h38.929l-1.675-21.204h-38.93L281.689,155.51z"/>
			<path style="fill:#E0E0E0;" d="M281.728,156.01h-39.934l-0.018-0.23l-1.735-21.973h39.933l0.018,0.23L281.728,156.01z
				 M242.257,155.51h38.93l-1.676-21.204h-38.929L242.257,155.51z"/>
			<path style="fill:#E0E0E0;" d="M242.296,156.01h-39.933l-0.018-0.23l-1.736-21.973h39.934l0.018,0.23L242.296,156.01z
				 M202.826,155.51h38.929l-1.675-21.204h-38.93L202.826,155.51z"/>
			<path style="fill:#E0E0E0;" d="M202.865,156.01h-39.934l-0.018-0.23l-1.735-21.973h39.933l0.018,0.23L202.865,156.01z
				 M163.395,155.51h38.93l-1.676-21.204H161.72L163.395,155.51z"/>
			<path style="fill:#E0E0E0;" d="M163.434,156.01h-39.933l-0.018-0.23l-1.736-21.973h39.933l0.018,0.23L163.434,156.01z
				 M123.964,155.51h38.929l-1.675-21.204h-38.93L123.964,155.51z"/>
			<path style="fill:#E0E0E0;" d="M124.003,156.01H84.069l-0.018-0.23l-1.735-21.973h39.933l0.018,0.23L124.003,156.01z
				 M84.532,155.51h38.93l-1.676-21.204H82.857L84.532,155.51z"/>
			<polygon style="opacity:0.1;fill:#407BFF;" points="283.171,177.464 322.603,177.464 320.888,155.76 281.457,155.76 			"/>
			<path style="fill:#E0E0E0;" d="M283.441,177.713h-39.933l-0.018-0.23l-1.736-21.973h39.934l0.017,0.23L283.441,177.713z
				 M243.972,177.213h38.929l-1.675-21.204h-38.93L243.972,177.213z"/>
			<path style="fill:#E0E0E0;" d="M244.011,177.713h-39.934l-0.018-0.23l-1.735-21.973h39.933l0.018,0.23L244.011,177.713z
				 M204.54,177.213h38.93l-1.676-21.204h-38.929L204.54,177.213z"/>
			<path style="fill:#E0E0E0;" d="M204.579,177.713h-39.933l-0.018-0.23l-1.736-21.973h39.934l0.018,0.23L204.579,177.713z
				 M165.109,177.213h38.929l-1.675-21.204h-38.93L165.109,177.213z"/>
			<path style="fill:#E0E0E0;" d="M165.148,177.713h-39.934l-0.018-0.23l-1.735-21.973h39.933l0.018,0.23L165.148,177.713z
				 M125.678,177.213h38.93l-1.676-21.204h-38.929L125.678,177.213z"/>
			<path style="fill:#E0E0E0;" d="M125.717,177.713H85.784l-0.018-0.23L84.03,155.51h39.933l0.018,0.23L125.717,177.713z
				 M86.247,177.213h38.929l-1.675-21.204h-38.93L86.247,177.213z"/>
			<path style="fill:#E0E0E0;" d="M324.588,199.417h-39.934l-0.018-0.231l-1.736-21.973h39.934l0.017,0.23L324.588,199.417z
				 M285.117,198.917h38.93l-1.676-21.204h-38.93L285.117,198.917z"/>
			<path style="fill:#E0E0E0;" d="M285.156,199.417h-39.933l-0.018-0.231l-1.736-21.973h39.933l0.018,0.23L285.156,199.417z
				 M245.687,198.917h38.929l-1.676-21.204h-38.929L245.687,198.917z"/>
			<path style="fill:#E0E0E0;" d="M245.726,199.417h-39.934l-0.018-0.231l-1.736-21.973h39.934l0.018,0.23L245.726,199.417z
				 M206.255,198.917h38.93l-1.676-21.204h-38.93L206.255,198.917z"/>
			<path style="fill:#E0E0E0;" d="M206.294,199.417h-39.933l-0.018-0.231l-1.736-21.973h39.933l0.018,0.23L206.294,199.417z
				 M166.824,198.917h38.929l-1.676-21.204h-38.929L166.824,198.917z"/>
			<path style="fill:#E0E0E0;" d="M166.863,199.417H126.93l-0.018-0.231l-1.736-21.973h39.934l0.018,0.23L166.863,199.417z
				 M127.393,198.917h38.93l-1.676-21.204h-38.93L127.393,198.917z"/>
			<path style="fill:#E0E0E0;" d="M127.432,199.417H87.498l-0.018-0.231l-1.735-21.973h39.933l0.018,0.23L127.432,199.417z
				 M87.961,198.917h38.93l-1.676-21.204H86.286L87.961,198.917z"/>
			<path style="fill:#E0E0E0;" d="M326.302,221.121h-39.933l-0.018-0.23l-1.736-21.974h39.934l0.018,0.23L326.302,221.121z
				 M286.832,220.621h38.929l-1.675-21.204h-38.93L286.832,220.621z"/>
			<path style="fill:#E0E0E0;" d="M286.871,221.121h-39.934l-0.018-0.23l-1.735-21.974h39.933l0.017,0.23L286.871,221.121z
				 M247.4,220.621h38.93l-1.676-21.204h-38.929L247.4,220.621z"/>
			<path style="fill:#E0E0E0;" d="M247.439,221.121h-39.933l-0.018-0.23l-1.736-21.974h39.934l0.018,0.23L247.439,221.121z
				 M207.97,220.621h38.929l-1.675-21.204h-38.93L207.97,220.621z"/>
			<path style="fill:#E0E0E0;" d="M208.009,221.121h-39.934l-0.018-0.23l-1.735-21.974h39.933l0.018,0.23L208.009,221.121z
				 M168.538,220.621h38.93l-1.676-21.204h-38.929L168.538,220.621z"/>
			<path style="fill:#E0E0E0;" d="M168.577,221.121h-39.933l-0.018-0.23l-1.736-21.974h39.934l0.018,0.23L168.577,221.121z
				 M129.107,220.621h38.929l-1.675-21.204h-38.93L129.107,220.621z"/>
			<path style="fill:#E0E0E0;" d="M129.147,221.121H89.213l-0.018-0.23l-1.736-21.974h39.934l0.018,0.23L129.147,221.121z
				 M89.676,220.621h38.93l-1.676-21.204H88L89.676,220.621z"/>
			<path style="fill:#E0E0E0;" d="M328.017,242.824h-39.934l-0.018-0.23l-1.735-21.973h39.933l0.018,0.23L328.017,242.824z
				 M288.546,242.324h38.93l-1.676-21.203h-38.929L288.546,242.324z"/>
			<path style="fill:#E0E0E0;" d="M288.585,242.824h-39.933l-0.018-0.23l-1.736-21.973h39.934l0.018,0.23L288.585,242.824z
				 M249.115,242.324h38.929l-1.675-21.203h-38.93L249.115,242.324z"/>
			<path style="fill:#E0E0E0;" d="M249.154,242.824h-39.934l-0.018-0.23l-1.735-21.973H247.4l0.018,0.23L249.154,242.824z
				 M209.684,242.324h38.93l-1.676-21.203h-38.929L209.684,242.324z"/>
			<path style="fill:#E0E0E0;" d="M209.723,242.824H169.79l-0.018-0.23l-1.736-21.973h39.934l0.018,0.23L209.723,242.824z
				 M170.253,242.324h38.929l-1.675-21.203h-38.93L170.253,242.324z"/>
			<path style="fill:#E0E0E0;" d="M170.292,242.824h-39.934l-0.018-0.23l-1.735-21.973h39.933l0.018,0.23L170.292,242.824z
				 M130.821,242.324h38.93l-1.676-21.203h-38.929L130.821,242.324z"/>
			<path style="fill:#E0E0E0;" d="M130.86,242.824H90.928l-0.018-0.23l-1.736-21.973h39.934l0.018,0.23L130.86,242.824z
				 M91.391,242.324h38.929l-1.675-21.203h-38.93L91.391,242.324z"/>
			<path style="fill:#E0E0E0;" d="M329.732,264.528h-39.934l-0.018-0.23l-1.736-21.974h39.934l0.018,0.23L329.732,264.528z
				 M290.261,264.028h38.93l-1.676-21.204h-38.93L290.261,264.028z"/>
			<path style="fill:#E0E0E0;" d="M290.3,264.528h-39.934l-0.018-0.23l-1.735-21.974h39.933l0.018,0.23L290.3,264.528z
				 M250.829,264.028h38.93l-1.676-21.204h-38.929L250.829,264.028z"/>
			<path style="fill:#E0E0E0;" d="M250.868,264.528h-39.933l-0.018-0.23l-1.736-21.974h39.934l0.018,0.23L250.868,264.528z
				 M211.398,264.028h38.929l-1.675-21.204h-38.93L211.398,264.028z"/>
			<path style="fill:#E0E0E0;" d="M211.438,264.528h-39.934l-0.018-0.23l-1.735-21.974h39.933l0.018,0.23L211.438,264.528z
				 M171.967,264.028h38.93l-1.676-21.204h-38.929L171.967,264.028z"/>
			<path style="fill:#E0E0E0;" d="M172.006,264.528h-39.933l-0.018-0.23l-1.736-21.974h39.934l0.018,0.23L172.006,264.528z
				 M132.536,264.028h38.929l-1.675-21.204h-38.93L132.536,264.028z"/>
			<path style="fill:#E0E0E0;" d="M132.575,264.528H92.642l-0.018-0.23l-1.735-21.974h39.933l0.018,0.23L132.575,264.528z
				 M93.105,264.028h38.93l-1.676-21.204H91.43L93.105,264.028z"/>
		</g>
	</g>
</g>
<g id="Character_1_">
	<g>
		<path style="fill:#CE7A63;" d="M388.853,154.883c2.356,4.704,4.28,9.336,6.1,14.17c1.754,4.839,3.359,9.746,4.518,14.959
			l0.415,1.963l0.351,2.013l0.173,1.026c0.063,0.583,0.148,1.211,0.134,1.758c-0.004,0.556-0.017,1.123-0.09,1.62l-0.1,0.767
			l-0.153,0.707c-0.436,1.869-1.11,3.392-1.833,4.772c-0.721,1.38-1.553,2.588-2.396,3.732c-1.69,2.281-3.548,4.239-5.49,6.051
			c-1.955,1.824-3.939,3.437-6.197,4.98c-1.484,1.014-3.509,0.633-4.523-0.851c-0.787-1.152-0.734-2.63,0.024-3.709l0.107-0.149
			c2.709-3.836,5.53-7.879,7.427-11.751c0.924-1.901,1.654-3.888,1.663-5.089l0.008-0.211l-0.019-0.161
			c0.007-0.121-0.033-0.176-0.044-0.24c-0.004-0.076-0.06-0.059-0.055-0.093l-0.21-0.797l-0.43-1.63l-0.501-1.649
			c-0.32-1.095-0.712-2.213-1.063-3.317c-0.404-1.111-0.768-2.22-1.201-3.33c-0.815-2.222-1.696-4.449-2.608-6.665
			c-1.801-4.418-3.785-8.928-5.7-13.195l-0.048-0.107c-1.469-3.275-0.005-7.122,3.27-8.591
			C383.567,150.434,387.3,151.794,388.853,154.883z"/>
		<path style="fill:#CE7A63;" d="M377.185,209.413l-2.605,4.224c-0.665,1.077-0.233,2.494,0.919,3.018l4.165,1.893
			c1.011,0.46,2.205,0.054,2.727-0.927l1.131-2.126l2.917-4.801l-2.962-4.643C379.797,205.998,377.185,209.413,377.185,209.413z"/>
		<path style="fill:#407BFF;" d="M405.88,405.143c-0.763,0.165-1.525,0.208-1.892-0.104c-0.154-0.131-0.309-0.383-0.174-0.836
			c0.071-0.238,0.227-0.417,0.463-0.53c1.027-0.49,3.385,0.471,3.486,0.513c0.065,0.027,0.109,0.09,0.111,0.161
			c0.003,0.071-0.038,0.137-0.101,0.167C407.411,404.688,406.646,404.977,405.88,405.143z M404.643,403.928
			c-0.078,0.017-0.149,0.04-0.211,0.07c-0.143,0.068-0.232,0.169-0.274,0.307c-0.096,0.324,0.023,0.426,0.063,0.46
			c0.409,0.347,1.926,0.027,2.996-0.401C406.492,404.109,405.318,403.782,404.643,403.928z"/>
		<path style="fill:#407BFF;" d="M407.731,404.528c-0.029,0.006-0.059,0.005-0.089-0.003c-0.859-0.251-2.698-1.557-2.72-2.419
			c-0.004-0.156,0.051-0.44,0.461-0.583c0.266-0.093,0.534-0.071,0.798,0.064c1.016,0.518,1.658,2.624,1.684,2.713
			c0.019,0.063,0.002,0.132-0.044,0.179C407.796,404.504,407.765,404.521,407.731,404.528z M405.58,401.841
			c-0.026,0.006-0.052,0.013-0.079,0.022c-0.223,0.078-0.22,0.187-0.218,0.233c0.013,0.51,1.226,1.534,2.116,1.949
			c-0.223-0.608-0.73-1.806-1.382-2.138C405.869,401.832,405.725,401.809,405.58,401.841z"/>
		<path style="fill:#407BFF;" d="M351.144,408.866c-0.976,0-1.918-0.134-2.234-0.573c-0.111-0.153-0.198-0.415,0.015-0.787
			c0.119-0.209,0.311-0.351,0.57-0.421c1.265-0.344,3.922,1.17,4.035,1.235c0.065,0.037,0.1,0.111,0.088,0.185
			c-0.012,0.074-0.069,0.133-0.142,0.148C352.99,408.75,352.052,408.866,351.144,408.866z M349.938,407.392
			c-0.127,0-0.244,0.013-0.348,0.041c-0.166,0.045-0.281,0.128-0.353,0.252c-0.127,0.224-0.081,0.335-0.035,0.398
			c0.354,0.491,2.275,0.503,3.688,0.303C352.186,408.025,350.826,407.392,349.938,407.392z"/>
		<path style="fill:#407BFF;" d="M353.44,408.657c-0.025,0-0.05-0.005-0.074-0.016c-0.918-0.412-2.735-2.056-2.596-2.915
			c0.033-0.202,0.176-0.453,0.671-0.503c0.369-0.038,0.703,0.067,0.998,0.309c0.967,0.794,1.172,2.842,1.18,2.929
			c0.006,0.064-0.022,0.126-0.074,0.163C353.514,408.645,353.477,408.657,353.44,408.657z M351.585,405.575
			c-0.035,0-0.072,0.002-0.108,0.006c-0.324,0.033-0.344,0.16-0.351,0.202c-0.083,0.516,1.152,1.808,2.088,2.37
			c-0.098-0.598-0.368-1.823-1.003-2.344C352.019,405.652,351.814,405.575,351.585,405.575z"/>
		<polygon style="fill:#CE7A63;" points="361.799,408.476 354.197,408.476 353.44,390.872 361.042,390.872 		"/>
		<polygon style="fill:#CE7A63;" points="416.205,402.509 408.776,404.118 401.316,387.721 408.746,386.112 		"/>
		<path style="fill:#263238;" d="M408.061,403.372l8.347-1.807c0.304-0.066,0.612,0.088,0.742,0.37l2.897,6.286
			c0.3,0.652-0.098,1.417-0.802,1.557c-2.925,0.581-4.377,0.716-8.048,1.511c-2.258,0.489-7.356,1.731-10.474,2.406
			c-3.05,0.66-4.193-2.32-2.977-2.876c5.453-2.492,7.732-4.685,9.208-6.73C407.22,403.721,407.617,403.468,408.061,403.372z"/>
		<path style="fill:#263238;" d="M354.247,407.596l8.301,0c0.311,0,0.58,0.216,0.647,0.519l1.502,6.757
			c0.156,0.7-0.376,1.364-1.094,1.352c-2.995-0.051-7.322-0.227-11.086-0.227c-4.401,0-8.202,0.24-13.363,0.24
			c-3.121,0-3.987-3.155-2.68-3.441c5.947-1.301,10.802-1.44,15.941-4.609C352.974,407.844,353.591,407.596,354.247,407.596z"/>
		<g>
			<polygon style="opacity:0.2;" points="353.442,390.877 353.831,399.951 361.435,399.951 361.047,390.877 			"/>
			<polygon style="opacity:0.2;" points="408.75,386.117 401.317,387.726 405.165,396.177 412.598,394.568 			"/>
		</g>
		<path style="fill:#407BFF;" d="M356.359,215.115c0,0,8.627,58.093,13.363,79.857c5.186,23.833,31.609,100.237,31.609,100.237
			l13.608-2.946c0,0-19.452-71.534-22.411-95.131c-3.212-25.611-9.932-82.018-9.932-82.018H356.359z"/>
		<path style="fill:#263238;" d="M398.072,390.666c-0.058,0.013,2.536,4.921,2.536,4.921l15.31-3.315l-1.291-4.603L398.072,390.666z
			"/>
		<path style="opacity:0.3;" d="M361.811,235.813c9.975,1.956,8.92,39.155,7.719,58.288c-2.877-13.524-7.088-39.548-9.965-58.019
			C360.228,235.751,360.973,235.648,361.811,235.813z"/>
		<path style="fill:#407BFF;" d="M341.936,215.115c0,0-1.047,56.836-0.22,80.017c0.86,24.112,9.282,103.062,9.282,103.062h12.877
			c0,0,0.473-77.541,1.046-101.222c0.625-25.816,3.742-81.858,3.742-81.858H341.936z"/>
		<path style="fill:#263238;" d="M348.52,393.065c-0.059,0,0.727,5.346,0.727,5.346h15.665l0.424-4.771L348.52,393.065z"/>
		<path style="fill:#263238;" d="M277.521,126.77c13.554-3.42,28.511,4.496,33.406,17.678s-2.124,26.641-15.678,30.061
			c-13.554,3.42-28.513-4.492-33.408-17.674C256.945,143.653,263.967,130.19,277.521,126.77z M293.846,170.732
			c11.408-2.879,17.317-14.209,13.197-25.304c-4.121-11.098-16.712-17.76-28.12-14.881c-11.411,2.88-17.32,14.209-13.199,25.307
			C269.844,166.95,282.435,173.611,293.846,170.732z"/>
		<path style="opacity:0.2;fill:#407BFF;" d="M293.222,169.052c10.455-2.638,15.87-13.021,12.094-23.188
			c-3.777-10.17-15.314-16.275-25.769-13.637c-10.457,2.639-15.872,13.022-12.096,23.192
			C271.227,165.586,282.765,171.691,293.222,169.052z"/>
		<path style="fill:#263238;" d="M292.653,174.212c0.438,1.977,1.015,3.919,1.634,5.849c0.621,1.93,1.301,3.845,2.019,5.75
			c0.722,1.904,1.49,3.796,2.287,5.681c0.971,1.84,0.979,3.928,4.063,5.224c0.857,0.36,2.127,0.167,2.838-0.43
			c0.145-0.121,0.258-0.256,0.334-0.387c1.418-2.455-0.243-4.118-0.938-6.028c-0.871-1.866-1.769-3.725-2.715-5.571
			c-0.949-1.846-1.936-3.681-2.983-5.502c-1.049-1.82-2.139-3.629-3.368-5.403c-0.341-0.493-1.305-0.656-2.152-0.365
			C292.958,173.276,292.555,173.768,292.653,174.212z"/>
		<path style="fill:#263238;" d="M347.565,126.777c0.151,0.594-0.042,1.156-0.43,1.255c-0.389,0.099-0.826-0.303-0.977-0.897
			c-0.151-0.594,0.042-1.156,0.43-1.255C346.977,125.781,347.414,126.183,347.565,126.777z"/>
		<path style="fill:#BA4D3C;" d="M347.578,127.92c0,0-0.48,3.772-1.548,5.804c1.301,0.714,2.974-0.188,2.974-0.188L347.578,127.92z"
			/>
		<path style="fill:#263238;" d="M348.902,122.925c0.079-0.038,0.144-0.105,0.179-0.192c0.073-0.185-0.018-0.394-0.203-0.467
			c-1.853-0.731-3.218,0.216-3.277,0.257c-0.162,0.115-0.2,0.34-0.085,0.502c0.115,0.162,0.342,0.198,0.501,0.086l0,0
			c0.045-0.031,1.119-0.758,2.597-0.175C348.711,122.974,348.815,122.967,348.902,122.925z"/>
		<path style="fill:#CE7A63;" d="M367.342,129.651c0.719,5.784,1.237,11.999,4.482,16.805c0,0,0.097,5.655-10.194,6.582
			c-11.317,1.019-7.02-5.031-7.02-5.031c4.141-0.96,4.279-6.492,1.969-10.622L367.342,129.651z"/>
		<path style="fill:#407BFF;" d="M373.886,149.992c0.639-2.543,1.336-5.451-0.592-6.208c-2.121-0.832-13.417-1.024-17.155,1.094
			c-3.738,2.118-2.278,7.077-2.278,7.077L373.886,149.992z"/>
		<path style="fill:#263238;" d="M384.973,149.019c7.028,2.008,12.405,20.648,12.405,20.648l-16.323,7.993
			c-2.441-5.075-4.837-11.156-6.121-14.862C371.713,153.497,377.786,146.966,384.973,149.019z"/>
		<g style="opacity:0.4;">
			
				<rect x="375.16" y="155.248" transform="matrix(0.4005 -0.9163 0.9163 0.4005 84.2547 440.2729)" style="fill:#FFFFFF;" width="6.857" height="1"/>
			<path style="fill:#FFFFFF;" d="M388.858,151.824l-1.121,2.564l0.916,0.4l0.916-2.095
				C389.336,152.39,389.099,152.099,388.858,151.824z"/>
			
				<rect x="379.462" y="166.229" transform="matrix(0.4005 -0.9163 0.9163 0.4005 76.7604 450.7844)" style="fill:#FFFFFF;" width="6.856" height="1"/>
			<path style="fill:#FFFFFF;" d="M394.62,161.96c-0.173-0.414-0.354-0.835-0.541-1.259l-2.04,4.668l0.916,0.4L394.62,161.96z"/>
		</g>
		<path style="fill:#263238;" d="M340.531,154.029c-1.819,6.99-3.652,23.653,1.405,61.086c17.297,1.762,33.132,2.835,40.659,0
			c0.335-7.45-3.466-37.544,2.378-66.096c0,0-6.969-1.399-13.611-1.719c-5.195-0.25-12.717-0.416-17.284,0.001
			c-2.849,0.26-5.62,0.747-7.749,1.187C343.492,149.074,341.261,151.224,340.531,154.029z"/>
		<g style="opacity:0.4;">
			<path style="fill:#FFFFFF;" d="M348.103,148.972l0.869,0.494l0.93-1.634c-0.437,0.07-0.859,0.142-1.273,0.215L348.103,148.972z"
				/>
			
				<rect x="338.56" y="160.236" transform="matrix(0.4943 -0.8693 0.8693 0.4943 33.2255 378.5833)" style="fill:#FFFFFF;" width="6.856" height="1"/>
			
				<rect x="349.931" y="157.11" transform="matrix(0.4944 -0.8692 0.8692 0.4944 41.6627 386.8452)" style="fill:#FFFFFF;" width="6.856" height="1"/>
			
				<rect x="361.302" y="153.984" transform="matrix(0.4944 -0.8693 0.8693 0.4944 50.1341 395.1552)" style="fill:#FFFFFF;" width="6.856" height="1"/>
			
				<rect x="372.673" y="150.858" transform="matrix(0.4943 -0.8693 0.8693 0.4943 58.6182 403.4807)" style="fill:#FFFFFF;" width="6.856" height="1"/>
			
				<rect x="341.687" y="171.607" transform="matrix(0.4944 -0.8693 0.8693 0.4944 24.8971 387.0154)" style="fill:#FFFFFF;" width="6.856" height="1"/>
			
				<rect x="353.057" y="168.481" transform="matrix(0.4944 -0.8693 0.8693 0.4944 33.3635 395.3183)" style="fill:#FFFFFF;" width="6.856" height="1"/>
			
				<rect x="364.428" y="165.355" transform="matrix(0.4944 -0.8693 0.8693 0.4944 41.8304 403.6221)" style="fill:#FFFFFF;" width="6.856" height="1"/>
			
				<rect x="375.799" y="162.229" transform="matrix(0.4942 -0.8693 0.8693 0.4942 50.3359 411.977)" style="fill:#FFFFFF;" width="6.856" height="1"/>
			<path style="fill:#FFFFFF;" d="M338.903,183.816c0.003,0.067,0.007,0.137,0.011,0.204l0.085-0.15L338.903,183.816z"/>
			
				<rect x="344.813" y="182.978" transform="matrix(0.4943 -0.8693 0.8693 0.4943 16.6188 395.5211)" style="fill:#FFFFFF;" width="6.856" height="1"/>
			
				<rect x="356.183" y="179.852" transform="matrix(0.4943 -0.8693 0.8693 0.4943 25.0754 403.8078)" style="fill:#FFFFFF;" width="6.856" height="1"/>
			
				<rect x="367.554" y="176.726" transform="matrix(0.4943 -0.8693 0.8693 0.4943 33.5431 412.1118)" style="fill:#FFFFFF;" width="6.856" height="1"/>
			<path style="fill:#FFFFFF;" d="M380.224,176.833l0.869,0.494l0.79-1.389c0.03-0.73,0.064-1.464,0.103-2.202L380.224,176.833z"/>
			<path style="fill:#FFFFFF;" d="M342.125,195.242l-0.869-0.494l-1.388,2.44c0.054,0.575,0.106,1.146,0.164,1.734L342.125,195.242z
				"/>
			
				<rect x="347.938" y="194.349" transform="matrix(0.4942 -0.8693 0.8693 0.4942 8.3225 404.0022)" style="fill:#FFFFFF;" width="6.856" height="1"/>
			
				<rect x="359.309" y="191.223" transform="matrix(0.4942 -0.8693 0.8693 0.4942 16.7907 412.3056)" style="fill:#FFFFFF;" width="6.856" height="1"/>
			
				<rect x="370.68" y="188.097" transform="matrix(0.4943 -0.8693 0.8693 0.4943 25.2391 420.5795)" style="fill:#FFFFFF;" width="6.856" height="1"/>
			<path style="fill:#FFFFFF;" d="M344.382,206.119l-2.946,5.18c0.047,0.368,0.096,0.742,0.144,1.115l0.281,0.16l3.39-5.96
				L344.382,206.119z"/>
			
				<rect x="351.064" y="205.72" transform="matrix(0.4942 -0.8694 0.8694 0.4942 0.0285 412.4884)" style="fill:#FFFFFF;" width="6.856" height="1"/>
			
				<rect x="362.435" y="202.594" transform="matrix(0.4942 -0.8694 0.8694 0.4942 8.4972 420.7919)" style="fill:#FFFFFF;" width="6.856" height="1"/>
			
				<rect x="373.806" y="199.468" transform="matrix(0.4943 -0.8693 0.8693 0.4943 16.9467 429.0648)" style="fill:#FFFFFF;" width="6.856" height="1"/>
			<path style="fill:#FFFFFF;" d="M359.748,214.857l-0.869-0.494l-1.201,2.113c0.376,0.024,0.741,0.043,1.113,0.065L359.748,214.857
				z"/>
			<path style="fill:#FFFFFF;" d="M371.118,211.731l-0.869-0.494l-3.191,5.611c0.382,0.004,0.77,0.01,1.144,0.01L371.118,211.731z"
				/>
			<path style="fill:#FFFFFF;" d="M382.438,208.697c-0.002-0.04-0.004-0.084-0.006-0.124l-0.812-0.461l-3.39,5.96l0.869,0.494
				L382.438,208.697z"/>
		</g>
		<path style="opacity:0.3;" d="M340.273,155.117v-0.01c6.715-6.15,9.1,5.4,8.684,10.594c-1.154,14.389-9.487,19.115-9.974,19.551
			C338.121,169.262,339.132,160.146,340.273,155.117z"/>
		<path style="fill:#CE7A63;" d="M350.743,161.779c-1.718,2.263-3.499,4.528-5.271,6.775l-5.355,6.72l-5.357,6.687
			c-1.762,2.234-3.547,4.446-5.259,6.664l-0.387,0.501c-0.819,1.062-1.999,1.7-3.23,1.874c-1.976,0.274-3.95,0.464-5.904,0.544
			c-1.954,0.105-3.901,0.081-5.831,0.014c-1.932-0.089-3.851-0.236-5.759-0.486c-1.924-0.256-3.768-0.558-5.747-1.048
			c-1.753-0.435-2.822-2.208-2.388-3.961c0.324-1.306,1.39-2.232,2.637-2.44l0.158-0.025l5.229-0.866
			c1.751-0.293,3.491-0.597,5.21-0.933c1.723-0.304,3.42-0.687,5.095-1.052c1.681-0.357,3.311-0.82,4.927-1.241l-3.616,2.375
			c3.215-4.989,6.553-9.754,10.003-14.441c1.71-2.353,3.474-4.658,5.242-6.96c1.781-2.297,3.567-4.564,5.443-6.813
			c2.3-2.757,6.4-3.127,9.157-0.827c2.676,2.233,3.103,6.16,1.023,8.91L350.743,161.779z"/>
		<path style="fill:#CE7A63;" d="M299.636,182.954l-4.702,1.585c-1.2,0.404-1.772,1.769-1.221,2.909l1.994,4.118
			c0.484,0.999,1.662,1.45,2.69,1.029l2.229-0.913l5.312-1.829l0.688-5.464C303.827,181.995,299.636,182.954,299.636,182.954z"/>
		<path style="fill:#263238;" d="M354.211,154.952c2.924,10.061-12.44,24.012-12.44,24.012l-13.8-13.509c0,0,4.553-5.674,7.75-9.41
			C344.685,145.57,351.877,146.92,354.211,154.952z"/>
		<g style="opacity:0.4;">
			<path style="fill:#FFFFFF;" d="M345.126,148.912c-0.376,0.111-0.76,0.25-1.152,0.417l-0.452,1.629l0.963,0.267L345.126,148.912z"
				/>
			<polygon style="fill:#FFFFFF;" points="331.052,168.47 331.599,166.498 330.636,166.231 330.236,167.672 			"/>
			
				<rect x="337.036" y="163.36" transform="matrix(0.2678 -0.9635 0.9635 0.2678 91.425 448.0168)" style="fill:#FFFFFF;" width="6.857" height="0.999"/>
			
				<rect x="347.3" y="157.551" transform="matrix(0.2668 -0.9637 0.9637 0.2668 104.8218 453.8892)" style="fill:#FFFFFF;" width="6.856" height="0.999"/>
			<path style="fill:#FFFFFF;" d="M347.671,170.953l-0.963-0.268l-1.246,4.493c0.489-0.545,1.001-1.136,1.527-1.768L347.671,170.953
				z"/>
		</g>
		<path style="fill:#CE7A63;" d="M367.066,120.483c1.406,7.412,2.605,11.679-0.13,16.362c-4.113,7.043-13.971,5.989-17.563-0.854
			c-3.233-6.159-4.989-17.246,1.418-21.965C357.102,109.376,365.66,113.071,367.066,120.483z"/>
		<path style="fill:#263238;" d="M352.389,127.222c-3.778-0.278-3.48-6.055-1.324-8c-5.454-0.222-12.297-0.445-10.621-6.389
			c1.222-4.333,12.667-4.444,7.333-7.444c5.111-3.167,8.144,2.111,5.628,3.278c7.983-3.111,17.206-5.333,13.928,2.333
			c5.5-0.889,9.278,8.24,6.444,12.175c-2.833,3.936,2.097,4.658,2.889,2.825c0.389,5.333-5.056,5.167-5.833,4.167
			c3.278,5.055-3.333,11.278-10.056,7.889C354.056,134.667,352.389,127.222,352.389,127.222z"/>
		<path style="fill:#263238;" d="M365.156,111.498c4.25-2.417,5.042-5.458,3.292-8.333
			C375.49,105.581,371.052,111.969,365.156,111.498z"/>
		<path style="fill:#CE7A63;" d="M355.543,126.007c0.414,1.625,0.152,3.361-0.425,4.626c-0.868,1.903-2.559,1.431-3.371-0.291
			c-0.73-1.55-1.158-4.407,0.22-5.744C353.325,123.282,355.07,124.149,355.543,126.007z"/>
	</g>
</g>
<g id="Plant">
	<g>
		<g>
			<path style="fill:#407BFF;" d="M139.737,318.203c0.087,1.463-1.374,2.514-2.734,1.967c-4.883-1.964-12.053-3.892-14.476-6.566
				c-3.002-3.313-6.736-3.252-9.462-4.883c-2.726-1.63-4.62-3.914-2.358-6.391c2.262-2.477,2.203-2.494,2.202-6.21
				c-0.002-3.716,2.527-4.257,5.743-4.085c3.217,0.172,1.41-6.57,6.318-2.764c4.908,3.806,3.738,11.087,6.561,14.796
				c2.822,3.709,5.82-0.494,7.062,4.949C139.482,312.91,139.576,315.49,139.737,318.203z"/>
			<path style="fill:#407BFF;" d="M132.328,354.551c-1.577-5.965,1.585-11.998-1.301-16.529c-2.887-4.531-1.632-9.434-2.657-13.307
				c-1.025-3.873-3.071-6.765-6.659-4.22c-3.588,2.545-3.59,2.464-7.896,1.813c-4.306-0.651-5.735,2.583-6.556,6.847
				c-0.821,4.264-8.061,0.708-5.207,7.834c2.854,7.125,11.663,6.857,15.066,11.22c3.403,4.363-1.045,8.752,5.415,9.769
				C128.992,358.995,135.451,369.236,132.328,354.551z"/>
			<path style="fill:#407BFF;" d="M141.612,333.07c4.004-4.694,10.764-5.533,12.842-10.486c2.079-4.954,6.824-6.716,9.423-9.765
				c2.599-3.049,3.81-6.378-0.326-7.877s-4.07-1.546-5.988-5.456c-1.918-3.91-5.39-3.242-9.362-1.487
				c-3.972,1.755-5.175-6.221-9.404,0.184c-4.23,6.405,1.009,13.492-0.638,18.774c-1.647,5.282-7.788,4.127-4.944,10.016
				S131.323,344.003,141.612,333.07z"/>
			<path style="fill:#263238;" d="M130.731,285.962c-0.823-4.821-5.007-7.522-4.442-11.957c0.565-4.435-1.909-7.232-2.443-10.363
				c-0.534-3.131-0.03-6.055,3.323-5.947c3.353,0.108,3.328,0.052,6.15-2.366c2.822-2.417,3.692,0.01,5.653,2.566
				c1.96,2.556,6.749-1.182,7.048,5.021c0.299,6.204-5.648,7.173-6.63,11.728c-0.982,4.556,3.574,5.538-0.647,9.192
				S133.292,297.486,130.731,285.962z"/>
			<path style="fill:#263238;" d="M132.282,392.947c-0.443,0-0.849-0.297-0.966-0.746c-2.45-9.318-0.703-20.566,1.319-33.59
				c1.619-10.422,3.454-22.235,3.454-35.196c0-7.753-1.222-15.484-2.3-22.306c-1.107-7.014-2.064-13.071-1.406-17.339
				c0.084-0.546,0.594-0.92,1.141-0.836c0.546,0.084,0.92,0.595,0.836,1.141c-0.611,3.959,0.323,9.874,1.405,16.723
				c1.09,6.893,2.324,14.707,2.324,22.617c0,13.115-1.848,25.01-3.478,35.504c-1.988,12.802-3.706,23.858-1.362,32.774
				c0.141,0.534-0.179,1.081-0.713,1.221C132.452,392.936,132.366,392.947,132.282,392.947z"/>
			<path style="fill:#263238;" d="M132.474,368.344c1.196-6.761,1.507-12.639,5.849-17.17c4.343-4.531,3.889-9.753,5.904-13.731
				c2.014-3.978,5.025-6.856,8.717-3.932c3.692,2.923,3.71,2.839,8.913,2.47c5.203-0.369,6.211,3.118,6.287,7.64
				c0.076,4.521,9.339,1.326,4.493,8.574c-4.846,7.248-15.157,6.328-20.071,10.647c-4.915,4.318,0.963,10.406-6.851,11.002
				C137.9,374.439,133.139,370.798,132.474,368.344z"/>
		</g>
		<g>
			<path style="fill:#407BFF;" d="M111.228,378.048h45.563c3.686,0-4.424,38.19-10.911,38.19h-23.74
				C115.651,416.238,107.541,378.048,111.228,378.048z"/>
			<path style="opacity:0.3;fill:#FFFFFF;" d="M111.228,378.048h45.563c3.686,0-4.424,38.19-10.911,38.19h-23.74
				C115.651,416.238,107.541,378.048,111.228,378.048z"/>
		</g>
	</g>
</g>
</svg>
