<svg width="25" height="24" viewBox="0 0 25 24" fill="none" xmlns="http://www.w3.org/2000/svg">
<g id="briefcase">
<path id="Vector" d="M20.6665 7H4.6665C3.56193 7 2.6665 7.89543 2.6665 9V19C2.6665 20.1046 3.56193 21 4.6665 21H20.6665C21.7711 21 22.6665 20.1046 22.6665 19V9C22.6665 7.89543 21.7711 7 20.6665 7Z" stroke="#0029C6" stroke-width="2" stroke-linecap="round" stroke-linejoin="round"/>
<path id="Vector_2" d="M16.6665 21V5C16.6665 4.46957 16.4558 3.96086 16.0807 3.58579C15.7056 3.21071 15.1969 3 14.6665 3H10.6665C10.1361 3 9.62736 3.21071 9.25229 3.58579C8.87722 3.96086 8.6665 4.46957 8.6665 5V21" stroke="#0029C6" stroke-width="2" stroke-linecap="round" stroke-linejoin="round"/>
</g>
</svg>
