<?xml version="1.0" standalone="no"?>
<!DOCTYPE svg PUBLIC "-//W3C//DTD SVG 20010904//EN"
 "http://www.w3.org/TR/2001/REC-SVG-20010904/DTD/svg10.dtd">
<svg version="1.0" xmlns="http://www.w3.org/2000/svg"
 width="833.000000pt" height="1023.000000pt" viewBox="0 0 833.000000 1023.000000"
 preserveAspectRatio="xMidYMid meet">

<g transform="translate(0.000000,1023.000000) scale(0.100000,-0.100000)"
fill="red" stroke="none">
<path d="M920 10219 c-36 -5 -106 -20 -155 -34 -406 -118 -702 -466 -755 -887
-13 -110 -13 -8261 0 -8368 31 -241 133 -449 302 -619 161 -162 373 -269 593
-301 59 -8 944 -10 3305 -8 l3225 3 96 27 c413 114 722 456 779 863 8 58 10
1043 8 3560 -3 3296 -4 3483 -21 3540 -27 93 -98 232 -161 315 -69 93 -1617
1611 -1722 1691 -133 100 -280 166 -458 207 -64 14 -304 16 -2521 18 -1347 1
-2479 -2 -2515 -7z m5025 -362 c78 -23 188 -76 247 -118 59 -43 93 -76 931
-899 384 -376 718 -710 742 -742 62 -83 92 -151 105 -243 8 -59 10 -992 8
-3505 -3 -3267 -4 -3428 -21 -3485 -75 -249 -260 -432 -507 -502 -62 -17 -194
-18 -3285 -18 -3039 0 -3224 1 -3285 18 -229 61 -418 236 -496 458 l-29 84 -3
4180 c-3 4698 -11 4246 76 4418 86 172 254 307 444 357 71 19 140 19 2543 17
2337 -2 2473 -3 2530 -20z"/>
<path d="M3867 8246 c-78 -21 -128 -63 -164 -136 -45 -90 -57 -179 -50 -380
11 -276 44 -448 147 -752 l71 -207 -72 -188 c-152 -402 -296 -746 -462 -1108
l-92 -200 -335 -170 c-443 -225 -608 -331 -760 -485 -119 -120 -173 -243 -150
-342 24 -96 107 -183 204 -210 104 -29 279 -2 409 63 227 114 492 407 799 886
70 109 138 210 150 225 18 21 67 41 240 97 257 84 414 126 712 192 l221 48 35
-30 c179 -152 290 -229 438 -303 231 -116 410 -166 622 -173 222 -8 336 22
425 111 61 61 80 117 72 204 -16 181 -153 297 -417 356 -84 18 -126 21 -370
20 -250 -1 -297 -3 -514 -32 -132 -18 -243 -32 -246 -32 -10 0 -318 388 -423
533 -51 70 -124 178 -161 240 l-69 112 76 305 c80 319 99 417 117 589 27 273
-6 488 -96 619 -83 120 -234 183 -357 148z m152 -147 c24 -17 50 -47 58 -67
22 -50 28 -224 14 -348 -25 -211 -151 -749 -171 -727 -13 14 -99 305 -119 403
-67 328 -65 568 4 685 53 92 135 112 214 54z m88 -1692 c83 -137 291 -415 457
-612 54 -64 97 -118 94 -120 -2 -2 -111 -27 -242 -55 -229 -49 -415 -99 -651
-174 -60 -19 -111 -33 -113 -32 -2 2 11 32 28 66 51 100 267 642 327 818 30
89 58 162 62 162 3 0 20 -24 38 -53z m1671 -761 c80 -20 149 -55 189 -98 113
-118 46 -303 -124 -338 -70 -15 -148 -2 -304 50 -228 76 -407 160 -574 271
l-110 73 35 7 c29 6 271 36 435 53 88 9 391 -3 453 -18z m-2669 -577 c-21 -40
-123 -194 -188 -284 -180 -251 -379 -465 -496 -533 -135 -78 -212 -88 -275
-35 -63 53 -76 123 -38 201 48 100 219 249 423 371 101 60 562 300 578 301 4
0 3 -9 -4 -21z"/>
<path d="M2490 2246 l0 -786 125 0 125 0 2 308 3 307 175 7 c186 7 251 19 323
61 230 135 276 518 91 744 -45 54 -110 93 -199 117 -59 16 -117 19 -357 23
l-288 5 0 -786z m520 573 c65 -14 102 -46 137 -117 25 -51 28 -68 28 -153 0
-82 -4 -102 -26 -145 -46 -90 -113 -117 -289 -118 l-115 -1 -3 273 -2 272 109
0 c61 0 133 -5 161 -11z"/>
<path d="M3650 2245 l0 -788 253 6 c280 7 353 18 457 69 82 40 193 149 243
238 82 149 123 344 113 545 -14 310 -138 543 -339 639 -124 60 -173 68 -464
73 l-263 5 0 -787z m552 542 c111 -50 190 -162 224 -317 24 -107 24 -331 0
-435 -25 -113 -78 -216 -138 -270 -69 -62 -139 -86 -270 -92 l-108 -6 0 578 0
577 118 -4 c98 -4 126 -9 174 -31z"/>
<path d="M4970 2245 l0 -786 128 3 127 3 3 343 2 342 245 0 245 0 0 100 0 100
-245 0 -245 0 0 235 0 235 305 0 305 0 0 105 0 105 -435 0 -435 0 0 -785z"/>
</g>
</svg>
