<svg width="240" height="42" viewBox="0 0 240 42" fill="none" xmlns="http://www.w3.org/2000/svg">
<g id="Retro Logo">
<g id="_Group_">
<path id="_Compound_Path_" d="M154.703 28.6989H160.926L157.8 18.9921L154.703 28.6989ZM161.426 30.2571H154.194L152.914 34.2001H151.6L157.181 17.1583H158.439L164.023 34.2001H162.709L161.426 30.2571Z" fill="white"/>
<path id="_Compound_Path_2" d="M176.242 32.5945H180.298C181.722 32.5945 183.59 31.9876 183.59 29.5813C183.59 27.1751 181.879 26.2668 180.386 26.2668H176.242V32.5945ZM176.242 24.7085H180.386C181.879 24.7085 183.216 23.8778 183.216 21.8073C183.216 19.5215 181.826 18.7424 180.298 18.7424H176.242V24.7085ZM180.298 17.1583C182.499 17.1583 184.458 18.4755 184.458 21.8331C184.458 23.4946 183.662 24.9625 182.502 25.4489C183.87 25.9526 184.826 27.6443 184.832 29.5856C184.832 33.1154 182.54 34.1872 180.298 34.1872H175V17.1583H180.298Z" fill="white"/>
<path id="_Compound_Path_3" d="M197.655 32.5945H201.711C203.133 32.5945 205 31.9876 205 29.5813C205 27.1751 203.293 26.2668 201.799 26.2668H197.655V32.5945ZM197.655 24.7085H201.799C203.293 24.7085 204.629 23.8778 204.629 21.8073C204.629 19.5215 203.243 18.7424 201.714 18.7424H197.655V24.7085ZM201.711 17.1583C203.912 17.1583 205.871 18.4755 205.871 21.8331C205.871 23.4946 205.076 24.9625 203.915 25.4489C205.283 25.9526 206.239 27.6443 206.245 29.5856C206.245 33.1154 203.95 34.1872 201.711 34.1872H196.41V17.1583H201.711Z" fill="white"/>
<path id="_Path_" d="M219.068 17.1583H217.823V34.2001H219.068V17.1583Z" fill="white"/>
<path id="_Path_2" d="M229.97 17.1583V18.7639H234.362V34.2001H235.608V18.7639H240V17.1583H229.97Z" fill="white"/>
<g id="_Group_2">
<path id="_Compound_Path_4" d="M132.692 29.3532V27.7562H137.761C140.151 27.4032 141.182 25.0959 141.182 22.5649C141.163 19.6894 139.83 17.1583 137.057 17.1583H131.463V34.2001H132.721V29.3532H132.692ZM132.692 18.7639H137.032C138.953 18.7639 139.912 20.4212 139.912 22.5649C139.912 24.7085 138.981 26.3098 136.975 26.3098H132.708L132.692 18.7639Z" fill="white"/>
<path id="_Path_3" d="M138.453 29.353H136.868L140.053 34.1999H141.673L138.453 29.353Z" fill="white"/>
</g>
</g>
<g id="_Group_3">
<path id="_Path_4" d="M30.4156 33.5669H21.4888V16.5251H30.2553V18.1307H22.7339V24.2432H29.9188V25.8273H22.7339V31.9613H30.4156V33.5669Z" fill="white"/>
<path id="_Path_5" d="M44.9806 18.1307H40.5879V16.5251H50.6184V18.1307H46.2257V33.5669H44.9806V18.1307Z" fill="white"/>
<path id="_Compound_Path_5" d="M88.5171 32.2757C91.9131 32.2757 93.5481 28.7459 93.567 25.0956C93.567 21.2732 91.9131 17.864 88.5171 17.8425C85.1715 17.8425 83.4138 21.0795 83.4484 25.0956C83.483 28.8191 85.1212 32.2757 88.5171 32.2757ZM94.8059 25.0956C94.787 29.5509 92.7243 33.8856 88.5171 33.8856C84.31 33.8856 82.2032 29.5509 82.2032 25.0698C82.2032 20.2745 84.4798 16.2325 88.5171 16.2325C92.7306 16.2584 94.831 20.5371 94.8059 25.0956Z" fill="white"/>
<g id="_Group_4">
<path id="_Compound_Path_6" d="M62.7836 27.1225H67.8146C70.198 26.7695 71.2388 24.4623 71.2199 21.9312C71.2199 19.0557 69.8678 16.5247 67.0945 16.5247H61.5195V33.5664H62.7773V27.2861H62.7961L62.7836 27.1225ZM62.7647 18.1303H67.1039C69.0251 18.1303 69.9842 19.7875 69.9842 21.9312C69.9842 24.0749 69.0409 25.6805 67.0316 25.6805H62.7647V18.1303Z" fill="white"/>
<path id="_Path_6" d="M68.5096 28.7192H66.9248L70.11 33.5661H71.7294L68.5096 28.7192Z" fill="white"/>
</g>
<g id="_Group_5">
<path id="_Compound_Path_7" d="M1.25775 28.7195V27.1225H6.32018C8.7036 26.7695 9.74439 24.4623 9.72552 21.9312C9.72552 19.0557 8.37659 16.5247 5.60012 16.5247H0V33.5664H1.25775V28.7195ZM1.25775 18.1303H5.59697C7.51818 18.1303 8.48035 19.7875 8.48035 21.9312C8.48035 24.0749 7.51818 25.6805 5.5278 25.6805H1.25775V18.1303Z" fill="white"/>
<path id="_Path_7" d="M6.99296 28.7192H5.4082L8.59345 33.5661H10.2128L6.99296 28.7192Z" fill="white"/>
</g>
</g>
<g id="_Group_6">
<path id="_Compound_Path_8" d="M124.91 0.912568L124.684 0L124.111 0.559594C122.781 1.86388 121.379 3.02181 119.92 4.02907L119.763 4.13669C117.385 5.84991 114.864 7.14989 112.254 8.0151C110.021 8.75549 108.418 11.4286 108.323 14.571V14.812L108.424 15.0143C108.795 15.7633 109.238 16.4391 109.738 17.0289C109.767 17.0633 109.801 17.0934 109.833 17.1279L110.757 16.3057C110.641 16.1895 110.528 16.0646 110.418 15.9355C110.031 15.4835 109.685 14.9713 109.383 14.4074C109.521 11.9925 110.779 9.97799 112.499 9.40978C115.194 8.51443 117.794 7.1671 120.247 5.39793L120.404 5.29031C121.681 4.40788 122.913 3.41352 124.096 2.31586C124.143 2.75492 124.143 3.19829 124.096 3.63736C123.888 5.38071 122.923 6.47407 122.561 6.88731C121.835 7.70087 120.951 8.20451 120.017 8.33364C119.171 8.53596 118.297 8.7641 117.584 10.0555C117.47 10.2664 117.338 10.5462 117.184 10.8733C116.864 11.6051 116.492 12.2895 116.077 12.9223C115.816 13.2839 115.543 13.6283 115.254 13.9511C115.194 14.0157 115.049 14.1706 114.867 14.3816L114.606 14.6786C114.213 15.109 113.106 16.1421 111.895 17.2226L110.858 18.1308C109.27 19.5255 107.795 20.7911 107.767 20.8169C107.113 21.3377 106.519 21.9877 106.006 22.7496C105.497 23.5202 105.078 24.3897 104.764 25.3324C103.94 27.7602 103.428 30.3644 103.252 33.0289C101.569 33.864 100.695 36.408 101.305 38.711C101.915 41.0139 103.774 42.2106 105.456 41.3755C105.676 41.2679 105.883 41.1258 106.081 40.958C107.081 41.6553 108.191 42.0126 109.314 41.9997C110.528 41.9566 111.732 41.6682 112.883 41.1387C113.659 40.8159 114.251 40.4414 114.612 39.6752C114.949 38.9563 115.162 38.1428 115.241 37.2948L115.263 37.1398C115.272 37.0709 115.307 37.015 115.354 36.9891C115.489 36.8901 115.65 36.8643 115.798 36.916C115.974 36.9978 116.241 37.1226 116.209 38.0567C116.156 39.3954 116.744 40.6265 117.662 41.0957C118.429 41.4702 119.524 41.2636 120.036 40.2649C120.385 39.5848 121.85 27.7515 121.24 18.0663C121.036 15.2511 120.505 12.5005 119.668 9.91342C119.822 9.86607 119.983 9.82733 120.175 9.78428C121.288 9.60779 122.341 8.99655 123.206 8.02371C123.652 7.52008 124.838 6.17275 125.108 3.89994C125.221 2.89697 125.152 1.87249 124.91 0.912568ZM104.362 40.4113C103.057 40.4113 101.994 38.9649 101.994 37.1785C101.994 35.9819 102.472 34.8842 103.242 34.3203C103.242 36.0723 103.676 37.7769 104.468 39.1543C104.701 39.5288 104.959 39.8732 105.242 40.1788C104.962 40.3295 104.663 40.4113 104.362 40.4113ZM106.138 39.3093C105.817 38.9994 105.525 38.6378 105.27 38.2289C104.55 37.0623 104.292 35.5256 104.283 33.9243H104.362C105.666 33.9243 106.726 35.3706 106.729 37.157C106.729 37.9448 106.519 38.7067 106.138 39.3007V39.3093ZM120.2 18.1567C120.785 27.4287 119.401 38.3881 119.153 39.4557C118.832 39.8086 118.401 39.9033 118.018 39.7096C117.533 39.4557 117.225 38.8014 117.257 38.0911C117.291 37.1699 117.121 35.9733 116.131 35.5084C115.697 35.3233 115.228 35.3965 114.832 35.7021C114.527 35.9388 114.31 36.3435 114.238 36.8127L114.216 36.9719C114.166 37.6391 114.002 38.2848 113.735 38.8487C113.593 39.15 113.351 39.3997 112.584 39.7096C111.326 40.2262 109.097 41.1517 106.924 39.8689C108.025 37.9405 107.776 35.1511 106.364 33.6445C105.792 33.0333 105.088 32.7018 104.362 32.7061H104.318C104.522 30.3515 104.99 28.0529 105.71 25.892C105.984 25.0827 106.342 24.338 106.78 23.6794C107.229 23.0208 107.748 22.4569 108.317 22.0049C108.559 21.7983 114.188 16.9815 115.263 15.7461L115.505 15.4749C115.681 15.2769 115.82 15.1262 115.904 15.0445C116.216 14.6958 116.511 14.3256 116.794 13.9339C117.266 13.2279 117.687 12.4617 118.052 11.6439C118.19 11.3511 118.313 11.0886 118.414 10.9035C118.508 10.7442 118.612 10.6021 118.728 10.473C119.511 12.9137 120.008 15.5051 120.2 18.1567Z" fill="white"/>
<path id="_Path_8" d="M112.115 13.1589C112.447 13.1589 112.716 12.7908 112.716 12.3367C112.716 11.8826 112.447 11.5145 112.115 11.5145C111.784 11.5145 111.515 11.8826 111.515 12.3367C111.515 12.7908 111.784 13.1589 112.115 13.1589Z" fill="white"/>
</g>
</g>
</svg>
